<?xml version="1.0" encoding="UTF-8"?><svg id="Object" xmlns="http://www.w3.org/2000/svg" xmlns:xlink="http://www.w3.org/1999/xlink" viewBox="0 0 174.67 149.59"><defs><style>.cls-1{fill:url(#Degradado_sin_nombre_91-3);}.cls-1,.cls-2,.cls-3,.cls-4,.cls-5,.cls-6,.cls-7,.cls-8,.cls-9{stroke-width:0px;}.cls-2{fill:url(#Degradado_sin_nombre_91-5);}.cls-3{fill:url(#Degradado_sin_nombre_91-7);}.cls-4{fill:url(#Degradado_sin_nombre_91-8);}.cls-5{fill:url(#Degradado_sin_nombre_91);}.cls-6{fill:url(#Degradado_sin_nombre_91-9);}.cls-7{fill:url(#Degradado_sin_nombre_91-2);}.cls-8{fill:url(#Degradado_sin_nombre_91-6);}.cls-9{fill:url(#Degradado_sin_nombre_91-4);}</style><radialGradient id="Degradado_sin_nombre_91" cx="89.12" cy="81.72" fx="89.12" fy="81.72" r="45.73" gradientUnits="userSpaceOnUse"><stop offset="0" stop-color="#118dea"/><stop offset=".49" stop-color="#1f68b5"/><stop offset="1" stop-color="#2e4482"/></radialGradient><radialGradient id="Degradado_sin_nombre_91-2" cx="145.02" cy="115.82" fx="145.02" fy="115.82" r="10.85" xlink:href="#Degradado_sin_nombre_91"/><radialGradient id="Degradado_sin_nombre_91-3" cx="33.45" cy="115.82" fx="33.45" fy="115.82" r="10.79" xlink:href="#Degradado_sin_nombre_91"/><radialGradient id="Degradado_sin_nombre_91-4" cx="123.29" cy="137.3" fx="123.29" fy="137.3" r="10.77" xlink:href="#Degradado_sin_nombre_91"/><radialGradient id="Degradado_sin_nombre_91-5" cx="54.96" cy="137.54" fx="54.96" fy="137.54" r="10.85" xlink:href="#Degradado_sin_nombre_91"/><radialGradient id="Degradado_sin_nombre_91-6" cx="54.88" cy="25.75" fx="54.88" fy="25.75" r="10.42" xlink:href="#Degradado_sin_nombre_91"/><radialGradient id="Degradado_sin_nombre_91-7" cx="123.3" cy="25.79" fx="123.3" fy="25.79" r="10.79" xlink:href="#Degradado_sin_nombre_91"/><radialGradient id="Degradado_sin_nombre_91-8" cx="144.78" cy="47.55" fx="144.78" fy="47.55" r="10.69" xlink:href="#Degradado_sin_nombre_91"/><radialGradient id="Degradado_sin_nombre_91-9" cx="33.52" cy="47.52" fx="33.52" fy="47.52" r="10.68" xlink:href="#Degradado_sin_nombre_91"/></defs><path class="cls-5" d="M134.78,45.65c0-3.64-1.69-6.72-4.77-8.38-3.21-1.73-6.45-1.75-9.69.09-2.76,1.57-3.88,4.18-4.78,7.02-5.19,16.35-24.51,24.06-39.56,15.82-7.16-3.92-11.58-9.96-13.96-17.7-1.16-3.76-3.94-5.94-7.89-6.37-3.92-.43-7.09,1.01-9.2,4.36-3.54,5.61-.64,12.54,5.98,14.48,16.68,4.89,24.86,23.35,17.18,38.94-3.71,7.54-9.81,12.26-17.82,14.67-4.13,1.24-6.77,4.75-6.88,8.86-.14,5.05,3.23,9.04,8.37,9.9,4.57.77,9.15-2.26,10.57-6.99,5.11-17.09,22.8-25.23,38.87-17.69,7.58,3.56,12.38,9.66,14.74,17.71,1.61,5.51,7.09,8.28,12.53,6.44,5.16-1.75,7.69-7.28,5.73-12.54-1.41-3.77-4.61-5.15-8.11-6.4-10.08-3.6-16.37-10.81-18.31-21.26-1.9-10.23,1.41-18.97,9.17-25.97,3.35-3.02,7.36-4.72,11.57-6.14,3.89-1.31,6.27-4.86,6.27-8.83Z"/><path class="cls-7" d="M150.37,118.9c-.59-6.35-2.64-11.79-6.87-16.39-.95-1.03-2.12-1.51-3.19-.52-1.09,1-.63,2.2.28,3.23,5.73,6.47,6.93,13.72,3.64,21.71-.51,1.23-.69,2.47.81,3.08,1.46.6,2.38-.27,2.77-1.58.92-3.16,1.72-6.35,2.57-9.52Z"/><path class="cls-1" d="M28.28,120.25c.46,1.74,1.28,5.06,2.25,8.34.36,1.21,1.33,1.96,2.7,1.39,1.39-.57,1.34-1.7.89-2.9-.1-.25-.21-.5-.32-.75-2.15-5.22-2.15-10.47.24-15.57.93-1.99,2.36-3.76,3.68-5.55.8-1.09,1.42-2.17.26-3.21-1.12-1-2.26-.49-3.19.52-.28.3-.57.58-.83.89-3.69,4.37-5.39,9.47-5.67,16.84Z"/><path class="cls-9" d="M108.94,134.56c.23.3.57.87,1.03,1.34,6.21,6.4,16.81,8.29,25.67,4.6,1.28-.53,2.47-1.26,1.84-2.84-.67-1.67-1.95-1.37-3.38-.79-7.68,3.06-14.72,1.92-21.07-3.39-.41-.35-.79-.77-1.26-1.02-1.33-.7-2.92.31-2.83,2.11Z"/><path class="cls-2" d="M51.84,142.86c6.36-.53,11.8-2.56,16.38-6.83.97-.91,1.68-1.95.59-3.14-1.05-1.14-2.16-.69-3.2.22-6.48,5.68-13.72,6.94-21.7,3.62-1.34-.56-2.48-.52-3.11.81-.68,1.43.23,2.39,1.53,2.77,3.15.92,6.34,1.71,9.52,2.55Z"/><path class="cls-8" d="M52.05,24.34c.04.19.08.37.12.56,3.75-.33,7.1.9,10.22,2.77,1.26.76,2.26,2,3.55,2.66.78.39,1.91.07,2.88.08-.11-.92.13-2.18-.38-2.69-7.3-7.36-18.53-8.44-26.42-4.34-.63.33-1.25,1.67-1.07,2.34.35,1.33,1.42,1.34,2.77.89,2.72-.91,5.54-1.52,8.32-2.25Z"/><path class="cls-3" d="M126.6,20.51c-6.44.54-11.95,2.55-16.56,6.89-.9.85-1.55,1.85-.53,2.99,1,1.11,2,.68,3-.19,6.6-5.76,13.96-7.05,22.06-3.63,1.28.54,2.32.36,2.87-.93.54-1.28-.21-2.13-1.37-2.48-3.14-.94-6.31-1.78-9.47-2.66Z"/><path class="cls-4" d="M146.5,44.39c-.45,5.37-2.25,9.9-5.82,13.75-.92.99-1.38,2.16-.2,3.2,1,.89,2,.39,2.86-.45,6.37-6.17,8.38-18.11,4.39-26.06-.59-1.17-1.41-1.93-2.72-1.34-1.24.55-1.13,1.62-.78,2.77.81,2.69,1.52,5.42,2.27,8.13Z"/><path class="cls-6" d="M31.89,33.3c-.4.54-1.26,1.3-1.62,2.25-3.33,8.82-2.1,16.97,3.84,24.35.95,1.18,2.1,2.61,3.67,1.39,1.76-1.37.18-2.62-.74-3.73-4.02-4.87-5.72-10.36-4.43-16.62.34-1.64.94-3.22,1.46-4.82.51-1.59-.13-2.8-2.19-2.81Z"/></svg>